<svg viewBox="0 0 175.804 127.73" width="18" height="13" xml:space="preserve" xmlns="http://www.w3.org/2000/svg"><path style="fill:#000" d="M76.781 185.183c-.682-.071-1.517-.31-1.856-.533-1.27-.832-1.8-2.44-1.267-3.843.122-.32 1.125-1.532 2.228-2.69 1.674-1.757 2.065-2.308 2.36-3.324.398-1.367.363-1.617-.635-4.618-.578-1.74-.705-2.47-.696-4.027.015-2.504.406-3.743 2.72-8.614 3.25-6.839 5.024-11.784 6.757-18.839 1.342-5.461 1.847-9.1 1.978-14.24l.114-4.443-5.455.099c-5.64.102-5.93.145-8.17 1.208-.638.303-.935.672-1.433 1.781-.67 1.494-1.124 1.881-2.208 1.881-1 0-1.28-.623-1.724-3.86-.215-1.568-.46-2.852-.545-2.852-.533 0-2.177 2-3.312 4.027-.723 1.292-1.51 2.45-1.75 2.573-.24.123-1.99 1.793-3.89 3.71-3.836 3.872-6.018 5.484-9.159 6.764-1.046.426-2.405.995-3.02 1.264-2.697 1.18-6.83 1.738-9.878 1.335-3.701-.49-6.716-1.873-9.376-4.302a15.292 15.292 0 0 1-4.946-12.345c.266-3.938 1.33-6.527 4.504-10.95 1.052-1.468 2.172-3.216 2.489-3.886 1.625-3.435.487-6.447-2.806-7.428-1.396-.415-2.252-.978-2.246-1.475 0-.113.596-.482 1.321-.82 1.146-.533 1.396-.767 1.9-1.778.319-.64.58-1.44.58-1.778 0-.338.091-.67.203-.74.39-.24 2.957.737 4.392 1.671 3.708 2.416 6.144 6.556 6.144 10.44 0 2.584-.692 4.362-3.414 8.766-1.994 3.228-2.468 4.432-2.483 6.31-.02 2.505 1.388 4.679 3.607 5.566.476.19 1.335.257 2.461.191 6.35-.37 11.089-7.303 14.04-20.54 1.24-5.56 1.679-9.497 1.655-14.834-.02-4.732.203-6.533 1.17-9.418 1.61-4.804 5.245-9.12 9.412-11.178 2.812-1.388 4.309-1.702 8.139-1.706 1.733-.002 5.892-.07 9.242-.151l6.091-.148 2.28-1.711c6.454-4.844 12.55-7.76 16.737-8.007 2.185-.128 3.655.146 5.679 1.058 6.075 2.738 14.035 11.2 17.038 18.114l.735 1.693 1.853.073c2.366.094 8.689-.32 13.15-.861 8.568-1.04 13.79-1.131 18.347-.324 7.175 1.27 13.864 4.783 19.146 10.052 4.969 4.956 7.628 10.117 9.73 18.885 2.101 8.769 2.69 15.23 2.252 24.753-.165 3.592-.191 7.315-.073 10.403l.183 4.81.937 1.902c1.887 3.83 1.835 7.092-.189 11.955-.775 1.861-.972 1.999-2.695 1.876l-.989-.07-1.06-2.126c-1.26-2.523-1.736-4.251-1.736-6.3 0-1.984.349-3.555 1.185-5.335l.683-1.454-.048-5.481c-.027-3.015-.142-6.338-.256-7.384-.308-2.823-1.172-7.419-1.357-7.22-.089.095-.439.878-.777 1.739-.338.861-1.87 4.335-3.404 7.719-4.448 9.814-5.52 12.838-5.797 16.342-.195 2.479.209 4.752 2.258 12.715l1.841 7.152 1.373 2.033c1.487 2.2 2.061 3.721 2.061 5.457 0 1.734-.436 2.839-1.572 3.98-1.64 1.647-1.402 1.626-17.037 1.487-12.898-.115-13.645-.144-14.444-.556-1.625-.838-2.28-2.606-1.513-4.089.185-.358 1.122-1.248 2.083-1.98 2.103-1.6 3.035-2.624 3.402-3.734.341-1.036.193-5.782-.325-10.393-.2-1.784-.395-5.006-.432-7.16l-.068-3.915-.959-2.36-.958-2.36-2.267.534c-2.854.673-9.605.922-13.709.505-3.096-.314-7.783-1.144-10.86-1.923-1.19-.302-2.235-.548-2.319-.548-.084 0-.09.226-.011.503.459 1.624 1.626 8.379 2.503 14.487 1.36 9.473 1.416 9.71 3.002 12.865 1.442 2.867 1.927 4.676 1.7 6.344-.181 1.321-.961 2.637-1.917 3.231-.783.487-.895.493-10.188.493-5.169 0-9.666-.076-9.995-.168-.908-.255-1.915-1.21-2.206-2.092-.497-1.506-.163-2.185 2.177-4.42 1.177-1.126 2.278-2.37 2.446-2.766.738-1.737.146-5.28-1.911-11.431-1.334-3.99-5.427-14.81-5.6-14.806-.07 0-1.887 2.225-4.04 4.942-9.415 11.877-10.758 14.387-9.346 17.47.305.668 1.2 1.944 1.986 2.836 2.29 2.596 2.437 2.85 2.437 4.212 0 1.52-.522 2.569-1.936 3.89-1.327 1.238-2.74 1.943-4.47 2.23-1.368.226-13.815.233-15.978.008zM46.69 132.695c4.374-.904 7.444-2.9 12.272-7.98 2.354-2.475 2.624-2.693 2.993-2.412.223.17.053-.076-.377-.548-.997-1.09-2.424-2.146-2.887-2.135-.196.005-.642.457-.99 1.005-.99 1.564-3.775 4.822-4.987 5.836-3.455 2.89-6.369 4.006-11.13 4.264-2.369.129-2.723.202-3.3.688-.355.299-.646.621-.646.716 0 .322 3.008.835 5.161.881 1.282.028 2.844-.099 3.89-.315z" transform="translate(-23.583 -57.662)"/></svg>
